<svg xmlns="http://www.w3.org/2000/svg" viewBox="0 0 533.5 544.3" width="20" height="20"><path fill="#4285F4" d="M533.5 278.4c0-17.7-1.6-34.7-4.6-51.1H272v96.7h147.1c-6.3 34.1-25 62.9-53.2 82v68h85.9c50.2-46.3 79.7-114.5 79.7-195.6z"/><path fill="#34A853" d="M272 544.3c72.6 0 133.6-24.1 178-65.5l-85.9-68c-24 16-54.9 25.5-92.1 25.5-70.7 0-130.6-47.7-152-111.8H30.7v70.2C75.2 486.8 168 544.3 272 544.3z"/><path fill="#FBBC05" d="M120 327.5c-10.3-30.8-10.3-64 0-94.8V162.5H30.7c-36 70.1-36 153.4 0 223.5L120 327.5z"/><path fill="#EA4335" d="M272 107.7c39.5-.6 77.3 14.1 106 40.9l79.4-79.4C405.6 24.7 344.6 0 272 0 168 0 75.2 57.5 30.7 142.6l89.3 70.2C141.4 155.4 201.3 107.7 272 107.7z"/></svg>