<?xml version="1.0" encoding="UTF-8"?>
<svg id="uuid-c145d9ef-8e04-475a-bdc5-eea1debe83f8" data-name="Layer 3" xmlns="http://www.w3.org/2000/svg" viewBox="0 0 577.25 270.49">
  <defs>
    <style>
      .uuid-a5fa2dc2-fe87-4bc7-a3c1-33de1e142b57 {
        letter-spacing: .79em;
      }

      .uuid-6eca8962-dd19-4c32-90f5-018ed0da1b60 {
        fill: none;
        stroke: #e07575;
        stroke-width: 3px;
      }

      .uuid-6eca8962-dd19-4c32-90f5-018ed0da1b60, .uuid-eb863846-0da3-479a-a914-01207ac0e9c1 {
        stroke-miterlimit: 10;
      }

      .uuid-4ca50116-55cf-48b3-9356-0032aedefbba {
        letter-spacing: .79em;
      }

      .uuid-c840115d-39df-4484-a55d-09185905c396 {
        letter-spacing: .77em;
      }

      .uuid-eb863846-0da3-479a-a914-01207ac0e9c1 {
        fill: #de4344;
        stroke: #de4344;
        stroke-width: .5px;
      }

      .uuid-61d6c1e7-5211-4a61-8151-a5a0ad70d491 {
        letter-spacing: .73em;
      }

      .uuid-f9d331a1-fa40-49d7-b8ae-178fe5502eeb {
        fill: #c13127;
        font-family: Signika-Semibold, Signika;
        font-size: 19.81px;
        font-weight: 600;
      }

      .uuid-fc5b1903-7bf5-4b9b-98e8-3bff66b93755 {
        letter-spacing: .76em;
      }
    </style>
  </defs>
  <g>
    <path class="uuid-eb863846-0da3-479a-a914-01207ac0e9c1" d="M65.56,184.23c0,16.49-10.45,26.18-27.68,26.18H4.67c-.94,0-1.71-.76-1.71-1.71v-80.83c0-.94.76-1.71,1.71-1.71h.86c.94,0,1.71.76,1.71,1.71v76.46c0,.94.76,1.71,1.71,1.71h28.94c15.09,0,23.94-7.39,23.94-21.57,0-5.82-1.81-9.61-2.97-11.6-.58-1-2.33-3.08-2.33-3.08-.99-1.21,0-2.39,0-2.39.37-.47,1.29-2.02,1.29-2.02.02-.04.05-.08.07-.12,2-3.74,2.94-7.84,2.94-12.54,0-14.42-8.2-22.06-22.92-22.06h-20.98c-.94,0-1.71.76-1.71,1.71v24.34c0,.94.76,1.71,1.71,1.71h22.05c3.92,0,5.82-1.94,5.82-5.7,0-4.24-2.38-6.55-5.82-6.55h-13.85c-.94,0-1.71.76-1.71,1.71v5.07c0,.94-.76,1.71-1.71,1.71h-.86c-.94,0-1.71-.76-1.71-1.71v-9.31c0-.94.76-1.71,1.71-1.71h18.13c2.38,0,4.99.85,6.53,2.3,2.38,2.3,3.56,5.09,3.56,8.49,0,6.42-3.8,10.06-10.1,10.06H12.75c-.94,0-1.71-.76-1.71-1.71v-33.07c0-.94.76-1.71,1.71-1.71h25.73c16.75,0,26.49,9.58,26.49,26.42,0,5.72-1.22,10.72-3.57,14.8-.34.59-.31,1.31.07,1.87,2.76,4.07,4.1,8.98,4.1,14.84ZM41.33,174.41c3.4,0,6.92,2.68,7.73,5.98.94,3.8.57,6.75-.72,9.17-1.66,3.51-4.75,5.21-9.38,5.21h-17.7c-1.18,0-2.14-.96-2.14-2.14v-8.09c0-1.18.96-2.14,2.14-2.14h0c1.18,0,2.14.96,2.14,2.14v3.72c0,1.18.96,2.14,2.14,2.14h13.42c4.16,0,6.18-1.94,6.18-5.82s-2.02-5.7-6.18-5.7h-21.62c-1.18,0-2.14.96-2.14,2.14v14.88c0,1.18.96,2.14,2.14,2.14h23.4c2.38,0,4.51-.61,6.53-1.82,4.16-2.55,6.18-6.18,6.18-11.15,0-8.85-5.11-14.42-13.07-14.42H13.3c-1.18,0-2.14-.96-2.14-2.14v-.09c0-1.18.96-2.14,2.14-2.14h27.08c7.6,0,12.59-5.94,12.59-14.3,0-2.42-.59-4.73-1.66-6.79-2.38-4.12-6.65-6.67-10.57-6.67h-19.36c-1.18,0-2.14-.96-2.14-2.14v-.09c0-1.18.96-2.14,2.14-2.14h19.36c3.21,0,6.18.73,8.67,2.18,4.99,3.03,7.96,8.85,7.96,15.64s-2.29,11.61-6.23,14.88c-1.08.89-1.16,2.46.05,3.38.34.26.55.43.8.62,2.92,2.1,5.72,8.2,5.72,14.22,0,4.8-1.75,9.01-5.13,12.51-.06.06-.13.13-.2.19-3.65,3.21-7.54,4.76-11.66,4.76H13.18c-1.18,0-2.14-.96-2.14-2.14v-23.84c0-1.18.96-2.14,2.14-2.14h28.15Z"/>
    <path class="uuid-eb863846-0da3-479a-a914-01207ac0e9c1" d="M155.87,191.35v17.36c0,.94-.76,1.7-1.7,1.7h-50.41c-.94,0-1.7-.76-1.7-1.7v-80.84c0-.94.76-1.7,1.7-1.7h.86c.94,0,1.7.76,1.7,1.7v76.5c0,.94.76,1.7,1.7,1.7h41.9c.94,0,1.7-.76,1.7-1.7v-8.67c0-.94-.76-1.7-1.7-1.7h-29.95c-.94,0-1.7-.76-1.7-1.7v-8.19c0-.94.76-1.7,1.7-1.7h.86c.94,0,1.7.76,1.7,1.7v3.84c0,.94.76,1.7,1.7,1.7h29.95c.94,0,1.7.76,1.7,1.7ZM141.92,167.09v.95c0,.94-.76,1.7-1.7,1.7h-28.42c-.94,0-1.7-.76-1.7-1.7v-40.17c0-.94.76-1.7,1.7-1.7h41.78c.94,0,1.7.76,1.7,1.7v17.24c0,.94-.76,1.7-1.7,1.7h-24.99c-.94,0-1.7-.76-1.7-1.7v-.95c0-.94.76-1.7,1.7-1.7h20.73c.94,0,1.7-.76,1.7-1.7v-8.55c0-.94-.76-1.7-1.7-1.7h-33.26c-.94,0-1.7.76-1.7,1.7v31.48c0,.94.76,1.7,1.7,1.7h24.16c.94,0,1.7.76,1.7,1.7ZM147.48,199.68v.95c0,.94-.76,1.7-1.7,1.7h-33.97c-.94,0-1.7-.76-1.7-1.7v-25.32c0-.94.76-1.7,1.7-1.7h32.56c.94,0,1.7-.76,1.7-1.7v-8.67c0-.94-.76-1.7-1.7-1.7h-24.39c-.94,0-1.7-.76-1.7-1.7v-24c0-.94.76-1.7,1.7-1.7h25.22c.94,0,1.7.76,1.7,1.7v.95c0,.94-.76,1.7-1.7,1.7h-20.96c-.94,0-1.7.76-1.7,1.7v15.31c0,.94.76,1.7,1.7,1.7h24.39c.94,0,1.7.76,1.7,1.7v17.36c0,.94-.76,1.7-1.7,1.7h-32.55c-.94,0-1.7.76-1.7,1.7v16.64c0,.94.76,1.7,1.7,1.7h29.72c.94,0,1.7.76,1.7,1.7Z"/>
    <path class="uuid-eb863846-0da3-479a-a914-01207ac0e9c1" d="M243.15,136.95l-29.81,38.52c-.23.3-.35.66-.35,1.04v32.11c0,.93-.75,1.69-1.68,1.69l-17.23.1c-.94,0-1.7-.75-1.7-1.69v-80.86c0-.93.76-1.69,1.69-1.69h.86c.93,0,1.69.76,1.69,1.69v76.54c0,.93.76,1.69,1.69,1.69h8.63c.93,0,1.69-.76,1.69-1.69v-29.46c0-.38.13-.74.36-1.04l30.35-39.03c.32-.41.81-.65,1.34-.65h1.14c1.41,0,2.2,1.62,1.34,2.73ZM220.24,172.76l30.34-39.42c.86-1.11.06-2.72-1.34-2.72h-11.04c-.53,0-1.02.25-1.34.66l-31.88,41.67c-.23.3-.35.66-.35,1.03v27.3c0,.93-.76,1.69-1.69,1.69h-.86c-.93,0-1.69-.76-1.69-1.69v-28.74c0-.37.12-.73.35-1.03l34.12-44.67c.32-.42.82-.66,1.34-.66h21.76c1.4,0,2.2,1.61,1.34,2.72l-33.66,43.87c-.45.59-.47,1.41-.03,2.02l18.41,25.5c.81,1.12,0,2.68-1.37,2.68h-1.13c-.54,0-1.05-.26-1.37-.7l-19.95-27.48c-.44-.61-.43-1.43.03-2.03ZM200.39,159.76v-31.9c0-.93.76-1.69,1.69-1.69h9.1c.93,0,1.69.76,1.69,1.69v20.08c0,.38-.13.75-.36,1.05l-.97,1.24c-.99,1.26-3.02.56-3.02-1.05v-16.86c0-.93-.76-1.69-1.69-1.69h-.5c-.93,0-1.69.76-1.69,1.69v26.34c0,.37-.12.73-.35,1.03l-.86,1.12c-.98,1.28-3.03.59-3.03-1.03ZM235.45,209.6l-18.13-24.94c-.21-.29-.32-.64-.32-1v-1.44c0-1.64,2.1-2.32,3.06-.99l17.51,24.16c.32.44.83.7,1.37.7h10.78c1.38,0,2.18-1.57,1.37-2.69l-20.39-28.14c-.44-.61-.43-1.44.03-2.03l.55-.71c.69-.89,2.04-.87,2.7.04l25.57,35.04c.82,1.12.02,2.69-1.37,2.69h-21.37c-.54,0-1.05-.26-1.37-.7Z"/>
    <path class="uuid-eb863846-0da3-479a-a914-01207ac0e9c1" d="M347.15,136.95l-29.81,38.52c-.23.3-.35.66-.35,1.04v32.11c0,.93-.75,1.69-1.68,1.69l-17.23.1c-.94,0-1.7-.75-1.7-1.69v-80.86c0-.93.76-1.69,1.69-1.69h.86c.93,0,1.69.76,1.69,1.69v76.54c0,.93.76,1.69,1.69,1.69h8.63c.93,0,1.69-.76,1.69-1.69v-29.46c0-.38.13-.74.36-1.04l30.35-39.03c.32-.41.81-.65,1.34-.65h1.14c1.41,0,2.2,1.62,1.34,2.73ZM324.24,172.76l30.34-39.42c.86-1.11.06-2.72-1.34-2.72h-11.04c-.53,0-1.02.25-1.34.66l-31.88,41.67c-.23.3-.35.66-.35,1.03v27.3c0,.93-.76,1.69-1.69,1.69h-.86c-.93,0-1.69-.76-1.69-1.69v-28.74c0-.37.12-.73.35-1.03l34.12-44.67c.32-.42.82-.66,1.34-.66h21.76c1.4,0,2.2,1.61,1.34,2.72l-33.66,43.87c-.45.59-.47,1.41-.03,2.02l18.41,25.5c.81,1.12,0,2.68-1.37,2.68h-1.13c-.54,0-1.05-.26-1.37-.7l-19.95-27.48c-.44-.61-.43-1.43.03-2.03ZM304.39,159.76v-31.9c0-.93.76-1.69,1.69-1.69h9.1c.93,0,1.69.76,1.69,1.69v20.08c0,.38-.13.75-.36,1.05l-.97,1.24c-.99,1.26-3.02.56-3.02-1.05v-16.86c0-.93-.76-1.69-1.69-1.69h-.5c-.93,0-1.69.76-1.69,1.69v26.34c0,.37-.12.73-.35,1.03l-.86,1.12c-.98,1.28-3.03.59-3.03-1.03ZM339.45,209.6l-18.13-24.94c-.21-.29-.32-.64-.32-1v-1.44c0-1.64,2.1-2.32,3.06-.99l17.51,24.16c.32.44.83.7,1.37.7h10.78c1.38,0,2.18-1.57,1.37-2.69l-20.39-28.14c-.44-.61-.43-1.44.03-2.03l.55-.71c.69-.89,2.04-.87,2.7.04l25.57,35.04c.82,1.12.02,2.69-1.37,2.69h-21.37c-.54,0-1.05-.26-1.37-.7Z"/>
    <path class="uuid-eb863846-0da3-479a-a914-01207ac0e9c1" d="M473.35,203.72l-31.32-72.43c-.27-.62-.88-1.02-1.56-1.02h-.6c-.68,0-1.29.4-1.56,1.02l-31.21,72.43c-.48,1.12.34,2.36,1.56,2.36h10.31c.69,0,1.32-.42,1.57-1.07l2.93-7.37c.26-.65.88-1.07,1.57-1.07h22.03c.68,0,1.29.4,1.56,1.02l.3.7c.48,1.12-.34,2.37-1.56,2.37h-19.76c-.68,0-1.3.41-1.56,1.04l-3.14,7.54c-.26.63-.88,1.04-1.56,1.04h-19.27c-1.22,0-2.04-1.26-1.55-2.38l35.43-80.74c.27-.62.88-1.01,1.55-1.01h5.34c.67,0,1.28.4,1.55,1.01l35.66,80.75c.49,1.12-.32,2.37-1.54,2.38l-18,.1c-.68,0-1.29-.4-1.56-1.02l-6.66-15.41c-.27-.62-.88-1.02-1.55-1.02l-28.53-.11c-.69,0-1.31.41-1.58,1.05l-3.26,8c-.26.64-.88,1.05-1.57,1.05h-1.48c-1.22,0-2.04-1.24-1.56-2.36l4.57-10.69c.27-.62.88-1.03,1.56-1.03h34.33c.67,0,1.28.4,1.55,1.01l6.66,15.18c.27.62.88,1.01,1.55,1.01h8.82c1.22,0,2.04-1.25,1.56-2.37ZM432.16,175.95l6.51-16c.56-1.38,2.51-1.41,3.12-.05l10.3,23.22c.5,1.12-.32,2.38-1.55,2.38h-29.01c-1.22,0-2.04-1.25-1.55-2.37l18.65-42.71c.59-1.35,2.51-1.36,3.1,0l26.41,60.04c.49,1.12-.33,2.38-1.55,2.38h-1.12c-.68,0-1.29-.4-1.56-1.02l-22.14-51.36c-.59-1.38-2.55-1.36-3.12.03l-11.9,28.96c-.46,1.12.36,2.34,1.57,2.34h15.73c1.23,0,2.05-1.27,1.55-2.39l-3.77-8.4c-.61-1.37-2.57-1.32-3.12.07l-2.46,6.17c-.26.64-.88,1.07-1.57,1.07h-.93c-1.2,0-2.02-1.22-1.57-2.33Z"/>
    <path class="uuid-eb863846-0da3-479a-a914-01207ac0e9c1" d="M525.22,200.27s.07.04.11.06c7.41,3.47,15.17,5.75,20.93,5.75.35,0,2.68.3,6.89-.91.13-.04.24-.07.34-.1,5.82-1.82,10.01-5.53,12.7-10.9l.24-.48c1.3-2.53,1.89-5.53,1.89-9.02,0-2.89-.59-5.53-1.77-7.94-1.88-3.95-5.16-7.31-9.72-9.95-.04-.02-.09-.05-.13-.07-3.05-1.5-4.89-2.32-5.53-2.59-.04-.02-.08-.03-.12-.04l-2.88-.94-1.53-.48c-6.37-1.92-10.38-4.57-11.91-7.82-.35-.6-.59-1.56-.59-2.89,0-1.81.24-3.25.83-4.33l.12-.24c1.3-2.53,3.18-4.09,5.78-4.81,1.15-.26,2.24-.49,4.13-.48,4.21.03,9.88,1.7,16.9,5.1.78.38,1.72.12,2.19-.62l.12-.19c.52-.82.24-1.93-.62-2.38-6.77-3.62-13.05-5.38-18.82-5.51-1.32-.03-4.01.35-5.01.65-3.48,1.04-6.11,3.37-7.97,6.81-.83,1.56-1.18,3.37-1.18,5.66,0,1.8.35,3.37,1.06,4.81,1.89,4.21,6.49,7.34,13.91,9.63l1.53.48c3.89,1.32,6.96,2.65,9.43,3.97,4.72,2.53,8.25,6.98,8.25,14.08,0,3.61-.83,6.74-2.36,9.51-3.18,5.53-9.08,8.42-16.04,8.42-6.13,0-12.71-1.29-18.62-4.93-.28-.17-.38-.44-.22-.85.17-.45,1.02-1.85,1.02-1.85.42-.73,1.31-1.04,2.1-.73,6.76,2.65,11.96,4.03,15.61,4.03,5.9,0,10.14-2.29,12.62-6.74,1.06-2.05,1.65-4.33,1.65-6.74,0-4.33-1.89-7.58-5.66-9.87-2.24-1.32-4.13-2.29-5.78-2.89l-3.14-1.19s-.06-.02-.09-.03l-1.49-.47c-8.61-2.65-14.15-6.62-16.62-12.03-.94-2.05-1.42-4.21-1.42-6.5,0-3.01.47-5.41,1.53-7.46,2.36-4.69,6.01-7.82,10.85-9.26,1.86-.58,2.73-.81,6.25-.84,7.19-.07,16.98,3.37,24.17,8.18l.37.21c.83.48,1.1,1.54.6,2.36l-4.57,7.42c-.49.8-1.53,1.04-2.33.56l-.33-.2c-5.66-3.73-12.97-6.38-18.04-6.38-1.89,0-3.18.12-3.89.48-1.38.59-2.54,2.32-2.59,4.75,0,.12,0,.25.03.37l.14.76c.05.29.17.56.37.79.47.56,1.27,1.26,2.3,2.12,1.18.96,3.42,1.92,6.6,3.01l1.65.48c10.32,3.35,17.15,8.25,20.35,14.7.03.06.06.13.09.2,1.74,4.52,2.67,8.1,2.67,10.85,0,3.25-.71,6.74-2.12,10.47l-.47.84c-3.42,6.86-8.61,11.19-15.56,13.24-2.48.72-5.19,1.08-8.14,1.08-8.96,0-20.04-3.61-28.42-9.39l-.33-.2c-.8-.49-1.05-1.53-.56-2.32l8.62-14.19c.49-.8,1.53-1.06,2.33-.57l.32.19c5.66,3.73,12.97,6.38,18.04,6.38,3.18,0,5.19-.96,6.01-2.89.35-.6.47-1.32.47-2.41,0-.6-.12-1.08-.35-1.44l-.12-.24c-1.06-1.92-3.89-3.61-8.72-5.17l-1.41-.48c-10.61-3.25-17.69-8.54-21.34-16-1.41-2.89-2.12-6.14-2.12-9.87,0-3.49.71-6.98,2.12-10.47l.35-.84c3.42-6.86,8.61-11.19,15.56-13.11,2.21-.57,4.53-1.07,8.25-1.2,8.24-.29,17.68,3.2,28.51,9.71.8.48,1.06,1.53.58,2.33l-.49.82c-.49.81-1.54,1.06-2.34.57-9.9-6.02-18.72-8.91-26.36-9.08-2.38-.05-6.04.66-7.23,1.01-5.85,1.71-10.01,5.53-12.7,10.9l-.23.48c-1.18,3.01-1.77,5.9-1.77,8.9s.59,5.53,1.77,7.94c2.95,6.38,9.08,10.95,18.63,13.84l.35.12,1.18.36c6.25,2.05,9.67,4.21,11.2,7.46l.24.48c.47,1.2.71,2.17.71,3.01,0,1.68-.24,3.01-.83,4.09l-.12.24c-1.18,2.41-3.07,3.97-5.78,4.69-.59.36-1.89.48-4.01.48-4.23,0-9.28-1.31-15.03-3.94-.04-.02-.09-.04-.13-.06l-1.82-.99c-.8-.43-1.79-.17-2.26.61l-4.14,6.84c-.5.83-.21,1.9.64,2.36l1.7.93Z"/>
  </g>
  <text class="uuid-f9d331a1-fa40-49d7-b8ae-178fe5502eeb" transform="translate(100.43 265.96)"><tspan class="uuid-a5fa2dc2-fe87-4bc7-a3c1-33de1e142b57" x="0" y="0">EVE</tspan><tspan class="uuid-fc5b1903-7bf5-4b9b-98e8-3bff66b93755" x="81.01" y="0">R</tspan><tspan class="uuid-4ca50116-55cf-48b3-9356-0032aedefbba" x="108.15" y="0">Y</tspan><tspan class="uuid-c840115d-39df-4484-a55d-09185905c396" x="134.09" y="0">D</tspan><tspan class="uuid-61d6c1e7-5211-4a61-8151-a5a0ad70d491" x="162.46" y="0">A</tspan><tspan class="uuid-a5fa2dc2-fe87-4bc7-a3c1-33de1e142b57" x="189.4" y="0">Y DESIGN</tspan></text>
  <path class="uuid-eb863846-0da3-479a-a914-01207ac0e9c1" d="M243.15,136.95l-29.81,38.52c-.23.3-.35.66-.35,1.04v32.11c0,.93-.75,1.69-1.68,1.69l-17.23.1c-.94,0-1.7-.75-1.7-1.69v-104.63c0-.93.76-1.69,1.69-1.69h.86c.93,0,1.69.76,1.69,1.69v100.31c0,.93.76,1.69,1.69,1.69h8.63c.93,0,1.69-.76,1.69-1.69v-29.46c0-.38.13-.74.36-1.04l30.35-39.03c.32-.41.81-.65,1.34-.65h1.14c1.41,0,2.2,1.62,1.34,2.73Z"/>
  <g>
    <path class="uuid-6eca8962-dd19-4c32-90f5-018ed0da1b60" d="M222.57,62.49h252.93c1.36,0,2.45-1.13,2.45-2.53v-11.79c0-1.4-1.1-2.53-2.45-2.53h-252.93"/>
    <path class="uuid-6eca8962-dd19-4c32-90f5-018ed0da1b60" d="M166.41,45.64h-62.2c-2.95,0-5.33,2.39-5.33,5.33v6.18c0,2.95,2.39,5.33,5.33,5.33h62.2"/>
    <path class="uuid-6eca8962-dd19-4c32-90f5-018ed0da1b60" d="M222.57,12.56c0-7.55-4.01-7.54-8.72-7.54h-40.74c-1.28.02-6.7,0-6.7,7.42h0v61.38c0,.98,1.89,4.21,4.21,4.21h47.74c2.33,0,4.21-3.34,4.21-4.21V12.56h0Z"/>
    <path class="uuid-6eca8962-dd19-4c32-90f5-018ed0da1b60" d="M209.01,77.87l-1.49,8.53c-.41,2.19-1.21,4.86-3.18,5.12h-19.69c-1.97-.26-2.77-2.92-3.18-5.12l-1.49-8.53"/>
    <path class="uuid-6eca8962-dd19-4c32-90f5-018ed0da1b60" d="M200.57,91.51l-2.01,9.26c-.48,1.68-1.24,2.36-2.06,2.36h-2.01s-2.01,0-2.01,0c-.82,0-1.58-.69-2.06-2.36l-2.01-9.26"/>
  </g>
</svg>