<?xml version="1.0" encoding="UTF-8"?>
<svg id="uuid-fd2e368c-d210-444d-b0f0-4315c56b6aa5" data-name="symbol" xmlns="http://www.w3.org/2000/svg" viewBox="0 0 665.77 110.39">
  <polyline points="664.02 108.64 26.09 108.64 26.09 88.27" style="fill: none; stroke: #de4344; stroke-linecap: round; stroke-linejoin: round; stroke-width: 4px;"/>
  <g>
    <path d="M50.43,8.29c0-6.55-3.48-6.54-7.56-6.54H7.55c-1.11.02-5.8,0-5.8,6.43h0v53.2c0,.85,1.63,3.65,3.65,3.65h41.37c2.02,0,3.65-2.9,3.65-3.65V8.29h0Z" style="fill: none; stroke: #e07575; stroke-miterlimit: 10; stroke-width: 3.5px;"/>
    <path d="M38.67,64.89l-1.3,7.39c-.35,1.9-1.05,4.21-2.75,4.43h-17.07c-1.71-.22-2.4-2.53-2.75-4.43l-1.3-7.39" style="fill: none; stroke: #e07575; stroke-miterlimit: 10; stroke-width: 3.5px;"/>
    <path d="M31.36,76.72l-1.75,8.03c-.42,1.45-1.07,2.05-1.79,2.05h-1.74s-1.74,0-1.74,0c-.71,0-1.37-.59-1.79-2.05l-1.75-8.03" style="fill: none; stroke: #e07575; stroke-miterlimit: 10; stroke-width: 3.5px;"/>
  </g>
  <g>
    <path d="M150.47,60.36c0,16.64-10.55,26.43-27.94,26.43h-33.53c-.95,0-1.72-.77-1.72-1.72V3.47c0-.95.77-1.72,1.72-1.72h.87c.95,0,1.72.77,1.72,1.72v77.19c0,.95.77,1.72,1.72,1.72h29.21c15.23,0,24.16-7.46,24.16-21.78,0-5.87-1.83-9.7-3-11.71-.59-1.01-2.35-3.11-2.35-3.11-1-1.23,0-2.41,0-2.41.38-.47,1.3-2.04,1.3-2.04.02-.04.05-.08.07-.12,2.02-3.78,2.96-7.92,2.96-12.66,0-14.56-8.27-22.27-23.14-22.27h-21.18c-.95,0-1.72.77-1.72,1.72v24.57c0,.95.77,1.72,1.72,1.72h22.26c3.96,0,5.88-1.96,5.88-5.75,0-4.28-2.4-6.61-5.88-6.61h-13.98c-.95,0-1.72.77-1.72,1.72v5.12c0,.95-.77,1.72-1.72,1.72h-.87c-.95,0-1.72-.77-1.72-1.72v-9.4c0-.95.77-1.72,1.72-1.72h18.3c2.4,0,5.04.86,6.59,2.32,2.4,2.32,3.6,5.14,3.6,8.57,0,6.48-3.84,10.16-10.19,10.16h-26.45c-.95,0-1.72-.77-1.72-1.72V3.6c0-.95.77-1.72,1.72-1.72h25.97c16.91,0,26.74,9.67,26.74,26.67,0,5.78-1.23,10.82-3.61,14.94-.34.6-.32,1.32.07,1.89,2.79,4.11,4.13,9.07,4.13,14.98ZM126,50.45c3.43,0,6.98,2.71,7.81,6.04.95,3.83.58,6.82-.73,9.26-1.68,3.55-4.8,5.26-9.47,5.26h-17.87c-1.19,0-2.16-.97-2.16-2.16v-8.16c0-1.19.97-2.16,2.16-2.16h0c1.19,0,2.16.97,2.16,2.16v3.76c0,1.19.97,2.16,2.16,2.16h13.55c4.2,0,6.24-1.96,6.24-5.87s-2.04-5.75-6.24-5.75h-21.82c-1.19,0-2.16.97-2.16,2.16v15.02c0,1.19.97,2.16,2.16,2.16h23.62c2.4,0,4.56-.61,6.6-1.84,4.2-2.57,6.24-6.24,6.24-11.26,0-8.93-5.16-14.56-13.19-14.56h-27.34c-1.19,0-2.16-.97-2.16-2.16v-.09c0-1.19.97-2.16,2.16-2.16h27.34c7.67,0,12.71-6,12.71-14.44,0-2.45-.6-4.77-1.68-6.85-2.4-4.16-6.72-6.73-10.67-6.73h-19.54c-1.19,0-2.16-.97-2.16-2.16v-.09c0-1.19.97-2.16,2.16-2.16h19.54c3.24,0,6.24.73,8.75,2.2,5.04,3.06,8.03,8.93,8.03,15.78s-2.31,11.72-6.29,15.02c-1.09.9-1.17,2.49.05,3.41.34.26.55.43.81.62,2.95,2.12,5.78,8.28,5.78,14.35,0,4.85-1.77,9.1-5.18,12.63-.06.06-.13.13-.2.19-3.69,3.24-7.61,4.8-11.77,4.8h-27.82c-1.19,0-2.16-.97-2.16-2.16v-24.07c0-1.19.97-2.16,2.16-2.16h28.42Z" style="fill: #de4344;"/>
    <path d="M241.64,67.55v17.52c0,.95-.77,1.72-1.72,1.72h-50.89c-.95,0-1.72-.77-1.72-1.72V3.47c0-.95.77-1.72,1.72-1.72h.87c.95,0,1.72.77,1.72,1.72v77.22c0,.95.77,1.72,1.72,1.72h42.3c.95,0,1.72-.77,1.72-1.72v-8.75c0-.95-.77-1.72-1.72-1.72h-30.24c-.95,0-1.72-.77-1.72-1.72v-8.27c0-.95.77-1.72,1.72-1.72h.87c.95,0,1.72.77,1.72,1.72v3.88c0,.95.77,1.72,1.72,1.72h30.24c.95,0,1.72.77,1.72,1.72ZM227.55,43.06v.96c0,.95-.77,1.72-1.72,1.72h-28.69c-.95,0-1.72-.77-1.72-1.72V3.47c0-.95.77-1.72,1.72-1.72h42.18c.95,0,1.72.77,1.72,1.72v17.4c0,.95-.77,1.72-1.72,1.72h-25.22c-.95,0-1.72-.77-1.72-1.72v-.95c0-.95.77-1.72,1.72-1.72h20.92c.95,0,1.72-.77,1.72-1.72V7.85c0-.95-.77-1.72-1.72-1.72h-33.58c-.95,0-1.72.77-1.72,1.72v31.78c0,.95.77,1.72,1.72,1.72h24.39c.95,0,1.72.77,1.72,1.72ZM233.16,75.96v.95c0,.95-.77,1.72-1.72,1.72h-34.3c-.95,0-1.72-.77-1.72-1.72v-25.56c0-.95.77-1.72,1.72-1.72h32.86c.95,0,1.72-.77,1.72-1.72v-8.75c0-.95-.77-1.72-1.72-1.72h-24.63c-.95,0-1.72-.77-1.72-1.72V11.51c0-.95.77-1.72,1.72-1.72h25.46c.95,0,1.72.77,1.72,1.72v.96c0,.95-.77,1.72-1.72,1.72h-21.16c-.95,0-1.72.77-1.72,1.72v15.45c0,.95.77,1.72,1.72,1.72h24.63c.95,0,1.72.77,1.72,1.72v17.52c0,.95-.77,1.72-1.72,1.72h-32.86c-.95,0-1.72.77-1.72,1.72v16.79c0,.95.77,1.72,1.72,1.72h30c.95,0,1.72.77,1.72,1.72Z" style="fill: #de4344;"/>
    <path d="M329.74,12.63l-30.09,38.89c-.23.3-.36.67-.36,1.05v32.42c0,.94-.76,1.7-1.7,1.71l-17.39.1c-.95,0-1.72-.76-1.72-1.71V3.46c0-.94.76-1.71,1.71-1.71h.86c.94,0,1.71.76,1.71,1.71v77.26c0,.94.76,1.71,1.71,1.71h8.71c.94,0,1.71-.76,1.71-1.71v-29.74c0-.38.13-.75.36-1.05l30.63-39.4c.32-.42.82-.66,1.35-.66h1.15c1.42,0,2.22,1.63,1.35,2.75ZM306.61,48.78l30.63-39.79c.86-1.12.06-2.75-1.35-2.75h-11.14c-.53,0-1.03.25-1.36.67l-32.19,42.06c-.23.3-.35.66-.35,1.04v27.56c0,.94-.76,1.71-1.71,1.71h-.86c-.94,0-1.71-.76-1.71-1.71v-29.02c0-.37.12-.74.35-1.04L321.37,2.42c.32-.42.83-.67,1.36-.67h21.97c1.42,0,2.22,1.62,1.36,2.75l-33.98,44.29c-.46.6-.47,1.43-.03,2.04l18.58,25.74c.82,1.13,0,2.71-1.39,2.71h-1.14c-.55,0-1.06-.26-1.38-.7l-20.14-27.74c-.44-.61-.43-1.45.03-2.05ZM286.57,35.66V3.46c0-.94.76-1.71,1.71-1.71h9.19c.94,0,1.71.76,1.71,1.71v20.27c0,.38-.13.76-.37,1.06l-.98,1.25c-1,1.27-3.05.56-3.05-1.06V7.95c0-.94-.76-1.71-1.71-1.71h-.51c-.94,0-1.71.76-1.71,1.71v26.59c0,.38-.12.74-.35,1.04l-.86,1.13c-.99,1.3-3.06.59-3.06-1.04ZM321.97,85.97l-18.3-25.18c-.21-.29-.33-.64-.33-1v-1.46c0-1.66,2.12-2.34,3.09-1l17.68,24.39c.32.44.84.71,1.38.71h10.88c1.39,0,2.2-1.58,1.38-2.71l-20.59-28.4c-.45-.62-.43-1.45.03-2.05l.56-.72c.7-.9,2.06-.88,2.73.04l25.81,35.37c.82,1.13.02,2.72-1.38,2.72h-21.57c-.55,0-1.06-.26-1.38-.7Z" style="fill: #de4344;"/>
    <path d="M434.73,12.63l-30.09,38.89c-.23.3-.36.67-.36,1.05v32.42c0,.94-.76,1.7-1.7,1.71l-17.39.1c-.95,0-1.72-.76-1.72-1.71V3.46c0-.94.76-1.71,1.71-1.71h.86c.94,0,1.71.76,1.71,1.71v77.26c0,.94.76,1.71,1.71,1.71h8.71c.94,0,1.71-.76,1.71-1.71v-29.74c0-.38.13-.75.36-1.05l30.63-39.4c.32-.42.82-.66,1.35-.66h1.15c1.42,0,2.22,1.63,1.35,2.75ZM411.6,48.78l30.63-39.79c.86-1.12.06-2.75-1.35-2.75h-11.14c-.53,0-1.03.25-1.36.67l-32.19,42.06c-.23.3-.35.66-.35,1.04v27.56c0,.94-.76,1.71-1.71,1.71h-.86c-.94,0-1.71-.76-1.71-1.71v-29.02c0-.37.12-.74.35-1.04L426.36,2.42c.32-.42.83-.67,1.36-.67h21.97c1.42,0,2.22,1.62,1.36,2.75l-33.98,44.29c-.46.6-.47,1.43-.03,2.04l18.58,25.74c.82,1.13,0,2.71-1.39,2.71h-1.14c-.55,0-1.06-.26-1.38-.7l-20.14-27.74c-.44-.61-.43-1.45.03-2.05ZM391.57,35.66V3.46c0-.94.76-1.71,1.71-1.71h9.19c.94,0,1.71.76,1.71,1.71v20.27c0,.38-.13.76-.37,1.06l-.98,1.25c-1,1.27-3.05.56-3.05-1.06V7.95c0-.94-.76-1.71-1.71-1.71h-.51c-.94,0-1.71.76-1.71,1.71v26.59c0,.38-.12.74-.35,1.04l-.86,1.13c-.99,1.3-3.06.59-3.06-1.04ZM426.96,85.97l-18.3-25.18c-.21-.29-.33-.64-.33-1v-1.46c0-1.66,2.12-2.34,3.09-1l17.68,24.39c.32.44.84.71,1.38.71h10.88c1.39,0,2.2-1.58,1.38-2.71l-20.59-28.4c-.45-.62-.43-1.45.03-2.05l.56-.72c.7-.9,2.06-.88,2.73.04l25.81,35.37c.82,1.13.02,2.72-1.38,2.72h-21.57c-.55,0-1.06-.26-1.38-.7Z" style="fill: #de4344;"/>
    <path d="M562.13,80.03l-31.62-73.12c-.27-.63-.89-1.03-1.57-1.03h-.61c-.68,0-1.3.41-1.57,1.03l-31.51,73.12c-.49,1.13.34,2.39,1.57,2.39h10.41c.7,0,1.33-.43,1.59-1.08l2.95-7.44c.26-.65.89-1.08,1.59-1.08h22.24c.68,0,1.3.41,1.57,1.03l.31.71c.49,1.13-.34,2.39-1.57,2.39h-19.95c-.69,0-1.31.42-1.58,1.05l-3.17,7.61c-.27.64-.89,1.05-1.58,1.05h-19.46c-1.23,0-2.06-1.27-1.57-2.4L524.38,2.77c.27-.62.89-1.02,1.57-1.02h5.39c.68,0,1.29.4,1.56,1.02l36,81.52c.5,1.13-.32,2.39-1.56,2.4l-18.17.1c-.69,0-1.31-.4-1.58-1.03l-6.73-15.55c-.27-.62-.88-1.03-1.56-1.03l-28.8-.11c-.7,0-1.33.42-1.59,1.06l-3.3,8.07c-.26.64-.89,1.06-1.58,1.06h-1.5c-1.23,0-2.06-1.25-1.57-2.38l4.61-10.79c.27-.63.89-1.04,1.57-1.04h34.66c.68,0,1.29.4,1.57,1.02l6.72,15.33c.27.62.89,1.02,1.57,1.02h8.9c1.23,0,2.06-1.26,1.57-2.39ZM520.55,52l6.57-16.15c.57-1.4,2.54-1.43,3.15-.05l10.4,23.44c.5,1.13-.33,2.4-1.56,2.4h-29.28c-1.23,0-2.06-1.26-1.57-2.39l18.82-43.11c.6-1.37,2.53-1.37,3.13,0l26.66,60.61c.5,1.13-.33,2.4-1.57,2.4h-1.14c-.68,0-1.3-.41-1.57-1.03l-22.35-51.85c-.6-1.39-2.58-1.37-3.15.03l-12.01,29.23c-.46,1.13.37,2.36,1.58,2.36h15.88c1.24,0,2.07-1.28,1.56-2.41l-3.81-8.48c-.62-1.38-2.59-1.34-3.15.07l-2.48,6.23c-.26.65-.89,1.08-1.59,1.08h-.94c-1.21,0-2.04-1.23-1.58-2.36Z" style="fill: #de4344;"/>
    <path d="M614.49,76.56s.07.04.11.06c7.48,3.51,15.31,5.8,21.13,5.8.35,0,2.7.3,6.95-.92.13-.04.24-.07.34-.1,5.87-1.84,10.11-5.59,12.82-11l.24-.49c1.31-2.55,1.9-5.59,1.9-9.11,0-2.92-.6-5.59-1.79-8.02-1.89-3.99-5.21-7.38-9.82-10.04-.04-.02-.09-.05-.13-.07-3.08-1.51-4.94-2.34-5.59-2.61-.04-.02-.08-.03-.12-.04l-2.91-.95-1.55-.49c-6.43-1.94-10.47-4.62-12.02-7.9-.36-.61-.6-1.58-.6-2.91,0-1.82.24-3.28.83-4.37l.12-.24c1.31-2.55,3.21-4.13,5.83-4.86,1.16-.26,2.26-.5,4.17-.49,4.25.03,9.97,1.72,17.06,5.15.79.38,1.74.12,2.21-.62l.12-.2c.52-.83.24-1.94-.62-2.41-6.84-3.65-13.17-5.44-19-5.56-1.33-.03-4.05.36-5.06.66-3.51,1.05-6.17,3.4-8.05,6.87-.83,1.58-1.19,3.4-1.19,5.71,0,1.82.36,3.4,1.07,4.86,1.9,4.25,6.55,7.41,14.05,9.72l1.55.49c3.93,1.34,7.02,2.67,9.52,4.01,4.76,2.55,8.33,7.05,8.33,14.21,0,3.64-.83,6.8-2.38,9.6-3.21,5.59-9.17,8.5-16.19,8.5-6.19,0-12.83-1.3-18.8-4.98-.28-.17-.39-.44-.23-.86.18-.46,1.03-1.87,1.03-1.87.42-.74,1.33-1.05,2.12-.73,6.82,2.68,12.08,4.07,15.76,4.07,5.95,0,10.24-2.31,12.74-6.8,1.07-2.07,1.67-4.37,1.67-6.8,0-4.37-1.9-7.65-5.71-9.96-2.26-1.34-4.17-2.31-5.83-2.92l-3.17-1.2s-.06-.02-.09-.03l-1.5-.47c-8.69-2.67-14.28-6.68-16.78-12.15-.95-2.07-1.43-4.25-1.43-6.56,0-3.04.48-5.47,1.55-7.53,2.38-4.74,6.07-7.9,10.95-9.35,1.87-.58,2.76-.82,6.31-.85,7.26-.07,17.14,3.4,24.4,8.26l.37.22c.84.48,1.11,1.56.61,2.38l-4.61,7.49c-.49.8-1.54,1.05-2.35.56l-.33-.2c-5.71-3.77-13.09-6.44-18.21-6.44-1.9,0-3.21.12-3.93.49-1.39.59-2.56,2.34-2.62,4.79,0,.12,0,.25.03.37l.14.77c.05.3.18.57.37.8.47.56,1.28,1.27,2.32,2.14,1.19.97,3.45,1.94,6.66,3.04l1.67.49c10.42,3.38,17.31,8.33,20.54,14.84.03.06.06.13.09.2,1.76,4.57,2.7,8.18,2.7,10.95,0,3.28-.71,6.8-2.14,10.57l-.48.85c-3.45,6.92-8.69,11.3-15.71,13.36-2.5.73-5.24,1.09-8.21,1.09-9.05,0-20.23-3.64-28.69-9.47l-.33-.2c-.8-.49-1.06-1.54-.57-2.35l8.7-14.32c.49-.81,1.55-1.07,2.36-.57l.32.2c5.71,3.77,13.09,6.44,18.21,6.44,3.21,0,5.24-.97,6.07-2.92.36-.61.48-1.34.48-2.43,0-.61-.12-1.09-.36-1.46l-.12-.24c-1.07-1.94-3.93-3.64-8.81-5.22l-1.43-.49c-10.71-3.28-17.85-8.62-21.54-16.15-1.43-2.92-2.14-6.19-2.14-9.96,0-3.52.71-7.05,2.14-10.57l.36-.85c3.45-6.92,8.69-11.3,15.71-13.24,2.23-.58,4.57-1.08,8.33-1.21,8.32-.29,17.84,3.23,28.78,9.8.81.48,1.07,1.54.58,2.35l-.49.82c-.49.82-1.55,1.07-2.37.57-9.99-6.08-18.9-9-26.61-9.17-2.4-.05-6.1.67-7.3,1.02-5.9,1.73-10.11,5.59-12.82,11.01l-.24.49c-1.19,3.04-1.79,5.95-1.79,8.99s.6,5.59,1.79,8.02c2.98,6.44,9.16,11.05,18.81,13.97l.36.12,1.19.36c6.31,2.07,9.76,4.25,11.31,7.53l.24.49c.48,1.21.71,2.19.71,3.04,0,1.7-.24,3.04-.83,4.13l-.12.24c-1.19,2.43-3.09,4.01-5.83,4.74-.6.36-1.9.49-4.05.49-4.27,0-9.37-1.33-15.17-3.98-.04-.02-.09-.04-.13-.06l-1.83-1c-.8-.44-1.81-.17-2.28.62l-4.18,6.91c-.5.83-.21,1.92.64,2.39l1.71.94Z" style="fill: #de4344;"/>
  </g>
</svg>